<svg width="25" height="19" viewBox="0 0 25 19" fill="none" xmlns="http://www.w3.org/2000/svg">
<path fill-rule="evenodd" clip-rule="evenodd" d="M8.93369 0.00932487C8.9085 0.0140616 8.80274 0.0332534 8.69865 0.0519862C7.10131 0.339404 5.52071 0.832105 3.97953 1.52302L3.8208 1.59418L3.68954 1.79097C3.49509 2.08251 3.34208 2.32256 3.15395 2.63122C1.28033 5.70529 0.247769 8.90845 0.0391145 12.294C0.00899274 12.7828 4.90046e-05 13.0863 1.6506e-07 13.622C-6.08844e-05 14.2406 0.0168071 14.7111 0.0603292 15.3049C0.0730824 15.4789 0.0997305 15.795 0.10293 15.8102C0.109089 15.8395 0.805297 16.3203 1.27809 16.6218C2.84626 17.6218 4.48774 18.3858 6.29024 18.9545L6.43369 18.9998L6.486 18.9286C6.93192 18.3222 7.38916 17.5807 7.7477 16.8825L7.78453 16.8108L7.72572 16.7883C7.0297 16.5217 6.34394 16.1927 5.72441 15.8281L5.64914 15.7838L5.73923 15.7173C5.84448 15.6396 5.97322 15.5386 6.08772 15.4441L6.16908 15.3769L6.3136 15.4414C7.60203 16.0159 8.95143 16.4176 10.2646 16.6173C10.3435 16.6293 10.4245 16.6418 10.4447 16.645C10.562 16.664 10.9707 16.7116 11.1773 16.7304C11.6678 16.775 11.9795 16.7886 12.5112 16.7887C12.9179 16.7887 13.0788 16.7843 13.4086 16.7643C15.1998 16.6555 16.9903 16.2054 18.6882 15.437C18.7614 15.4039 18.8215 15.3801 18.8256 15.3826C18.8296 15.3851 18.9075 15.4468 18.9988 15.5198C19.0901 15.5928 19.2027 15.6809 19.2491 15.7155C19.2955 15.7502 19.3346 15.7794 19.3361 15.7805C19.3408 15.784 19.3185 15.7975 19.1388 15.9001C18.548 16.2373 17.9395 16.5281 17.3555 16.7523C17.2782 16.7819 17.213 16.8079 17.2105 16.8101C17.2055 16.8144 17.2967 16.9931 17.4122 17.2051C17.7347 17.7974 18.0742 18.3353 18.4767 18.892L18.5547 19L18.6816 18.9604C19.435 18.7251 20.2506 18.418 20.9696 18.0987C22.1621 17.569 23.336 16.9071 24.4158 16.1554C24.5203 16.0826 24.8711 15.8335 24.8839 15.8229C24.8861 15.8211 24.9109 15.5515 24.9254 15.3723C24.9941 14.5249 25.015 13.7153 24.9895 12.8968C24.8767 9.28011 23.8462 5.88296 21.8865 2.6675C21.7192 2.39307 21.594 2.19673 21.3862 1.88299L21.1969 1.59725L21.0954 1.55135C19.5443 0.849436 17.9015 0.336399 16.2627 0.0421639C16.1854 0.0282963 16.1017 0.0132232 16.0765 0.00867005C16.0513 0.00411077 16.0288 0.00219527 16.0266 0.00441065C16.0186 0.0123052 15.9059 0.218966 15.83 0.365028C15.702 0.611302 15.5266 0.981312 15.4197 1.23073C15.3985 1.28029 15.3783 1.32599 15.375 1.33228C15.3692 1.34308 15.3659 1.34327 15.3152 1.33569C14.8359 1.26412 14.1379 1.19519 13.5887 1.16523C13.2273 1.14551 13.1221 1.14263 12.6455 1.13939C11.8262 1.13382 11.2421 1.16071 10.4843 1.23889C10.2375 1.26435 9.70899 1.33044 9.65694 1.34235C9.64602 1.34484 9.63773 1.32974 9.58725 1.21535C9.45907 0.924894 9.26847 0.53298 9.10297 0.219571C8.99336 0.0120176 8.98632 -0.000809565 8.98253 3.49705e-05C8.98085 0.00040828 8.95887 0.00458812 8.93369 0.00932487ZM8.56885 7.9396C8.98369 7.98374 9.36391 8.14502 9.704 8.4211C9.79892 8.49815 9.9678 8.66938 10.0471 8.76897C10.4556 9.28192 10.6481 9.92541 10.6002 10.6172C10.5544 11.2765 10.2977 11.8619 9.86179 12.3007C9.50248 12.6624 9.07912 12.873 8.58876 12.9341C8.48459 12.9471 8.24816 12.9489 8.1492 12.9374C7.56218 12.8695 7.05749 12.5819 6.66743 12.0929C6.60337 12.0126 6.50021 11.86 6.45179 11.7738C6.25929 11.4313 6.14458 11.0515 6.11277 10.6516C6.10344 10.5343 6.10883 10.2206 6.12199 10.1153C6.18779 9.58886 6.37017 9.1444 6.6802 8.75498C6.76212 8.65208 6.92998 8.48342 7.03035 8.40314C7.36447 8.13592 7.73832 7.98079 8.15225 7.9376C8.23808 7.92864 8.47657 7.92979 8.56885 7.9396ZM16.8717 7.93962C17.2829 7.98337 17.646 8.1353 17.9927 8.40874C18.0833 8.4802 18.2776 8.67606 18.3559 8.77481C18.7203 9.23474 18.9091 9.79132 18.9091 10.406C18.9091 10.8655 18.821 11.2639 18.6354 11.6426C18.573 11.7699 18.5425 11.8234 18.4661 11.939C18.1329 12.4436 17.6285 12.7933 17.0721 12.9056C16.9255 12.9352 16.8233 12.945 16.6595 12.9449C16.4716 12.9449 16.3453 12.9296 16.165 12.885C15.7037 12.7709 15.277 12.486 14.9606 12.0811C14.9019 12.0059 14.7974 11.8501 14.7545 11.7738C14.5682 11.4422 14.4556 11.0788 14.4186 10.6893C14.4045 10.5415 14.4093 10.2277 14.4276 10.0908C14.4984 9.56241 14.6892 9.1117 15.0046 8.72811C15.0798 8.6366 15.2402 8.47798 15.3315 8.40472C15.6736 8.13043 16.0471 7.97828 16.4855 7.93464C16.5483 7.92839 16.7962 7.93159 16.8717 7.93962Z" fill="#EF2D2D"/>
</svg>
