<svg width="22" height="22" viewBox="0 0 22 22" fill="none" xmlns="http://www.w3.org/2000/svg">
<path fill-rule="evenodd" clip-rule="evenodd" d="M7.76436 0.0142989C6.41537 0.03844 5.99024 0.0660212 5.38072 0.168832C4.42829 0.329491 3.70789 0.575579 2.98604 0.986913C2.5502 1.23526 2.2565 1.46509 1.81763 1.9012C1.49138 2.22544 1.33919 2.40436 1.16316 2.67069C0.725053 3.33352 0.41518 4.10757 0.239002 4.97918C0.03935 5.96703 0.00821187 6.71936 0.00051785 10.7429C-0.00452098 13.3862 0.027462 15.3546 0.0855444 15.9785C0.177511 16.9655 0.449336 17.9744 0.825498 18.7245C1.27404 19.619 2.08053 20.4979 2.91154 20.9978C3.4675 21.3322 4.23259 21.6158 4.99312 21.7692C6.04256 21.981 6.91458 22.0106 11.717 21.9973C15.5072 21.9869 16.0333 21.9651 16.9067 21.7831C18.0199 21.551 18.8548 21.1874 19.6467 20.5899C19.9749 20.3424 20.5463 19.763 20.7579 19.4634C21.4703 18.4545 21.861 17.1805 21.9562 15.556C22.0346 14.2192 22.0003 6.78288 21.9119 5.94482C21.7772 4.66707 21.4132 3.57963 20.822 2.68886C19.7044 1.00487 18.0744 0.197198 15.4886 0.0461651C14.7964 0.00575902 9.47047 -0.0162395 7.76436 0.0142989ZM14.4629 1.99124C15.4476 2.04109 16.5676 2.15914 16.9513 2.25353C17.6015 2.4135 18.262 2.76134 18.6811 3.1645C18.9883 3.46014 19.3966 4.0741 19.5772 4.51214C19.6228 4.62268 19.695 4.85446 19.7375 5.02719C20.0276 6.20377 20.0725 7.09913 20.0513 11.286C20.0355 14.4129 20.0189 14.9154 19.8961 15.9785C19.7854 16.9375 19.7045 17.2596 19.4388 17.7983C19.1432 18.3978 18.8094 18.7809 18.2678 19.1424C17.5724 19.6065 17.287 19.7063 16.0467 19.9192C15.5426 20.0057 14.6439 20.0296 11.3851 20.0431C7.60547 20.0588 7.14226 20.0434 5.68245 19.8539C5.21966 19.7939 5.0739 19.764 4.77727 19.6685C3.936 19.3977 3.30617 18.9346 2.85744 18.2568C2.47295 17.676 2.38123 17.4444 2.20013 16.5971C1.99402 15.6327 1.98259 15.3953 1.96436 11.6934C1.94789 8.34849 1.97203 7.32989 2.09453 6.20132C2.21438 5.09732 2.29273 4.77127 2.57693 4.1946C2.93336 3.4713 3.39262 3.01715 4.21907 2.57075C4.84869 2.23066 5.70447 2.06723 7.31177 1.98011C8.1614 1.93403 13.4972 1.94236 14.4629 1.99124ZM16.4834 3.81214C16.1348 3.94172 15.8111 4.2341 15.6467 4.56785C15.5551 4.75389 15.5489 4.78696 15.5489 5.08465C15.5489 5.38475 15.5546 5.41435 15.6505 5.60923C15.7784 5.86926 16.0548 6.15214 16.3183 6.29279C16.5094 6.39481 16.5232 6.39747 16.8614 6.39747C17.1868 6.39747 17.2196 6.39186 17.3884 6.30694C17.9274 6.03587 18.2474 5.48171 18.186 4.92598C18.1423 4.53118 17.797 4.07443 17.3925 3.87642C17.2105 3.78734 17.1498 3.77334 16.9097 3.76516C16.6982 3.75792 16.6002 3.76872 16.4834 3.81214ZM10.1631 5.38922C9.87925 5.42564 9.5571 5.49809 9.21265 5.60293C7.30329 6.184 5.76829 7.91754 5.39427 9.91516C5.26709 10.5943 5.28076 11.5503 5.42788 12.2643C5.80878 14.1129 7.27807 15.7437 9.12379 16.3663C9.79437 16.5925 10.2672 16.6555 11.137 16.6345C12.1033 16.611 12.6836 16.4739 13.467 16.0837C15.1192 15.2608 16.2438 13.7294 16.5472 11.8896C16.6108 11.5041 16.6194 10.6081 16.5633 10.2148C16.4321 9.29392 16.0918 8.42496 15.5908 7.73136C15.3745 7.43195 15.3055 7.35261 14.9199 6.96071C14.0365 6.06281 13.0449 5.5627 11.8286 5.40156C11.4604 5.3528 10.5022 5.3457 10.1631 5.38922ZM11.5533 7.34845C12.8522 7.53617 14.0277 8.52647 14.4463 9.78558C14.9699 11.3606 14.4599 12.9661 13.122 13.9541C12.1617 14.6633 10.8213 14.8446 9.65015 14.4235C9.17104 14.2513 8.78142 13.9944 8.32949 13.5528C7.74867 12.9851 7.44046 12.4135 7.30914 11.6603C7.2415 11.2722 7.26482 10.4596 7.35386 10.1033C7.57448 9.22041 8.12704 8.44005 8.90787 7.90864C9.64647 7.40593 10.5814 7.20798 11.5533 7.34845Z" fill="#EF2D2D"/>
</svg>
